<mxfile host="app.diagrams.net" modified="2021-01-22T08:02:00.924Z" agent="5.0 (Windows NT 10.0; Win64; x64) AppleWebKit/537.36 (KHTML, like Gecko) Chrome/87.0.4280.141 Safari/537.36" etag="5w75AobTo936jrDgWywz" version="14.2.6" type="github">
  <diagram id="85rQUQE0vng4b-ih_0mq" name="Page-1">
    <mxGraphModel dx="780" dy="1112" grid="0" gridSize="10" guides="1" tooltips="1" connect="1" arrows="1" fold="1" page="1" pageScale="1" pageWidth="1100" pageHeight="850" math="0" shadow="0">
      <root>
        <mxCell id="0" />
        <mxCell id="1" parent="0" />
        <mxCell id="CyyGL9ud01h04zfXikxN-14" value="tournament" style="shape=table;startSize=30;container=1;collapsible=1;childLayout=tableLayout;fixedRows=1;rowLines=0;fontStyle=1;align=center;resizeLast=1;fillColor=#B2C9AB;strokeColor=#788AA3;fontColor=#46495D;" parent="1" vertex="1">
          <mxGeometry x="346" y="203" width="180" height="140" as="geometry">
            <mxRectangle x="280" y="200" width="100" height="30" as="alternateBounds" />
          </mxGeometry>
        </mxCell>
        <mxCell id="CyyGL9ud01h04zfXikxN-15" value="" style="shape=partialRectangle;collapsible=0;dropTarget=0;pointerEvents=0;fillColor=none;top=0;left=0;bottom=1;right=0;points=[[0,0.5],[1,0.5]];portConstraint=eastwest;strokeColor=#788AA3;fontColor=#46495D;" parent="CyyGL9ud01h04zfXikxN-14" vertex="1">
          <mxGeometry y="30" width="180" height="30" as="geometry" />
        </mxCell>
        <mxCell id="CyyGL9ud01h04zfXikxN-16" value="PK" style="shape=partialRectangle;connectable=0;fillColor=none;top=0;left=0;bottom=0;right=0;fontStyle=1;overflow=hidden;strokeColor=#788AA3;fontColor=#46495D;" parent="CyyGL9ud01h04zfXikxN-15" vertex="1">
          <mxGeometry width="30" height="30" as="geometry" />
        </mxCell>
        <mxCell id="CyyGL9ud01h04zfXikxN-17" value="tournament_id" style="shape=partialRectangle;connectable=0;fillColor=none;top=0;left=0;bottom=0;right=0;align=left;spacingLeft=6;fontStyle=5;overflow=hidden;strokeColor=#788AA3;fontColor=#46495D;" parent="CyyGL9ud01h04zfXikxN-15" vertex="1">
          <mxGeometry x="30" width="150" height="30" as="geometry" />
        </mxCell>
        <mxCell id="CyyGL9ud01h04zfXikxN-18" value="" style="shape=partialRectangle;collapsible=0;dropTarget=0;pointerEvents=0;fillColor=none;top=0;left=0;bottom=0;right=0;points=[[0,0.5],[1,0.5]];portConstraint=eastwest;strokeColor=#788AA3;fontColor=#46495D;" parent="CyyGL9ud01h04zfXikxN-14" vertex="1">
          <mxGeometry y="60" width="180" height="30" as="geometry" />
        </mxCell>
        <mxCell id="CyyGL9ud01h04zfXikxN-19" value="" style="shape=partialRectangle;connectable=0;fillColor=none;top=0;left=0;bottom=0;right=0;editable=1;overflow=hidden;strokeColor=#788AA3;fontColor=#46495D;" parent="CyyGL9ud01h04zfXikxN-18" vertex="1">
          <mxGeometry width="30" height="30" as="geometry" />
        </mxCell>
        <mxCell id="CyyGL9ud01h04zfXikxN-20" value="tournament_name" style="shape=partialRectangle;connectable=0;fillColor=none;top=0;left=0;bottom=0;right=0;align=left;spacingLeft=6;overflow=hidden;fontStyle=1;strokeColor=#788AA3;fontColor=#46495D;" parent="CyyGL9ud01h04zfXikxN-18" vertex="1">
          <mxGeometry x="30" width="150" height="30" as="geometry" />
        </mxCell>
        <mxCell id="CyyGL9ud01h04zfXikxN-21" value="" style="shape=partialRectangle;collapsible=0;dropTarget=0;pointerEvents=0;fillColor=none;top=0;left=0;bottom=0;right=0;points=[[0,0.5],[1,0.5]];portConstraint=eastwest;strokeColor=#788AA3;fontColor=#46495D;" parent="CyyGL9ud01h04zfXikxN-14" vertex="1">
          <mxGeometry y="90" width="180" height="30" as="geometry" />
        </mxCell>
        <mxCell id="CyyGL9ud01h04zfXikxN-22" value="FK" style="shape=partialRectangle;connectable=0;fillColor=none;top=0;left=0;bottom=0;right=0;editable=1;overflow=hidden;fontStyle=1;strokeColor=#788AA3;fontColor=#46495D;" parent="CyyGL9ud01h04zfXikxN-21" vertex="1">
          <mxGeometry width="30" height="30" as="geometry" />
        </mxCell>
        <mxCell id="CyyGL9ud01h04zfXikxN-23" value="tournament_type" style="shape=partialRectangle;connectable=0;fillColor=none;top=0;left=0;bottom=0;right=0;align=left;spacingLeft=6;overflow=hidden;fontStyle=1;strokeColor=#788AA3;fontColor=#46495D;" parent="CyyGL9ud01h04zfXikxN-21" vertex="1">
          <mxGeometry x="30" width="150" height="30" as="geometry" />
        </mxCell>
        <mxCell id="CyyGL9ud01h04zfXikxN-24" value="" style="shape=partialRectangle;collapsible=0;dropTarget=0;pointerEvents=0;fillColor=none;top=0;left=0;bottom=0;right=0;points=[[0,0.5],[1,0.5]];portConstraint=eastwest;strokeColor=#788AA3;fontColor=#46495D;" parent="CyyGL9ud01h04zfXikxN-14" vertex="1">
          <mxGeometry y="120" width="180" height="20" as="geometry" />
        </mxCell>
        <mxCell id="CyyGL9ud01h04zfXikxN-25" value="" style="shape=partialRectangle;connectable=0;fillColor=none;top=0;left=0;bottom=0;right=0;editable=1;overflow=hidden;strokeColor=#788AA3;fontColor=#46495D;" parent="CyyGL9ud01h04zfXikxN-24" vertex="1">
          <mxGeometry width="30" height="20" as="geometry" />
        </mxCell>
        <mxCell id="CyyGL9ud01h04zfXikxN-26" value="" style="shape=partialRectangle;connectable=0;fillColor=none;top=0;left=0;bottom=0;right=0;align=left;spacingLeft=6;overflow=hidden;strokeColor=#788AA3;fontColor=#46495D;" parent="CyyGL9ud01h04zfXikxN-24" vertex="1">
          <mxGeometry x="30" width="150" height="20" as="geometry" />
        </mxCell>
        <mxCell id="CyyGL9ud01h04zfXikxN-27" value="tournament_type" style="shape=table;startSize=30;container=1;collapsible=1;childLayout=tableLayout;fixedRows=1;rowLines=0;fontStyle=1;align=center;resizeLast=1;fillColor=#B2C9AB;strokeColor=#788AA3;fontColor=#46495D;" parent="1" vertex="1">
          <mxGeometry x="91" y="206" width="180" height="90" as="geometry" />
        </mxCell>
        <mxCell id="CyyGL9ud01h04zfXikxN-28" value="" style="shape=partialRectangle;collapsible=0;dropTarget=0;pointerEvents=0;fillColor=none;top=0;left=0;bottom=1;right=0;points=[[0,0.5],[1,0.5]];portConstraint=eastwest;strokeColor=#788AA3;fontColor=#46495D;" parent="CyyGL9ud01h04zfXikxN-27" vertex="1">
          <mxGeometry y="30" width="180" height="30" as="geometry" />
        </mxCell>
        <mxCell id="CyyGL9ud01h04zfXikxN-29" value="PK" style="shape=partialRectangle;connectable=0;fillColor=none;top=0;left=0;bottom=0;right=0;fontStyle=1;overflow=hidden;strokeColor=#788AA3;fontColor=#46495D;" parent="CyyGL9ud01h04zfXikxN-28" vertex="1">
          <mxGeometry width="30" height="30" as="geometry" />
        </mxCell>
        <mxCell id="CyyGL9ud01h04zfXikxN-30" value="tournament_type_id" style="shape=partialRectangle;connectable=0;fillColor=none;top=0;left=0;bottom=0;right=0;align=left;spacingLeft=6;fontStyle=5;overflow=hidden;strokeColor=#788AA3;fontColor=#46495D;" parent="CyyGL9ud01h04zfXikxN-28" vertex="1">
          <mxGeometry x="30" width="150" height="30" as="geometry" />
        </mxCell>
        <mxCell id="CyyGL9ud01h04zfXikxN-31" value="" style="shape=partialRectangle;collapsible=0;dropTarget=0;pointerEvents=0;fillColor=none;top=0;left=0;bottom=0;right=0;points=[[0,0.5],[1,0.5]];portConstraint=eastwest;strokeColor=#788AA3;fontColor=#46495D;" parent="CyyGL9ud01h04zfXikxN-27" vertex="1">
          <mxGeometry y="60" width="180" height="30" as="geometry" />
        </mxCell>
        <mxCell id="CyyGL9ud01h04zfXikxN-32" value="" style="shape=partialRectangle;connectable=0;fillColor=none;top=0;left=0;bottom=0;right=0;editable=1;overflow=hidden;strokeColor=#788AA3;fontColor=#46495D;" parent="CyyGL9ud01h04zfXikxN-31" vertex="1">
          <mxGeometry width="30" height="30" as="geometry" />
        </mxCell>
        <mxCell id="CyyGL9ud01h04zfXikxN-33" value="tournament_type_name" style="shape=partialRectangle;connectable=0;fillColor=none;top=0;left=0;bottom=0;right=0;align=left;spacingLeft=6;overflow=hidden;strokeColor=#788AA3;fontColor=#46495D;" parent="CyyGL9ud01h04zfXikxN-31" vertex="1">
          <mxGeometry x="30" width="150" height="30" as="geometry" />
        </mxCell>
        <mxCell id="CyyGL9ud01h04zfXikxN-58" value="participant" style="shape=table;startSize=30;container=1;collapsible=1;childLayout=tableLayout;fixedRows=1;rowLines=0;fontStyle=1;align=center;resizeLast=1;fillColor=#B2C9AB;strokeColor=#788AA3;fontColor=#46495D;" parent="1" vertex="1">
          <mxGeometry x="646" y="206" width="180" height="110" as="geometry">
            <mxRectangle x="280" y="200" width="100" height="30" as="alternateBounds" />
          </mxGeometry>
        </mxCell>
        <mxCell id="CyyGL9ud01h04zfXikxN-59" value="" style="shape=partialRectangle;collapsible=0;dropTarget=0;pointerEvents=0;fillColor=none;top=0;left=0;bottom=1;right=0;points=[[0,0.5],[1,0.5]];portConstraint=eastwest;strokeColor=#788AA3;fontColor=#46495D;" parent="CyyGL9ud01h04zfXikxN-58" vertex="1">
          <mxGeometry y="30" width="180" height="30" as="geometry" />
        </mxCell>
        <mxCell id="CyyGL9ud01h04zfXikxN-60" value="PK" style="shape=partialRectangle;connectable=0;fillColor=none;top=0;left=0;bottom=0;right=0;fontStyle=1;overflow=hidden;strokeColor=#788AA3;fontColor=#46495D;" parent="CyyGL9ud01h04zfXikxN-59" vertex="1">
          <mxGeometry width="30" height="30" as="geometry" />
        </mxCell>
        <mxCell id="CyyGL9ud01h04zfXikxN-61" value="participant_id" style="shape=partialRectangle;connectable=0;fillColor=none;top=0;left=0;bottom=0;right=0;align=left;spacingLeft=6;fontStyle=5;overflow=hidden;strokeColor=#788AA3;fontColor=#46495D;" parent="CyyGL9ud01h04zfXikxN-59" vertex="1">
          <mxGeometry x="30" width="150" height="30" as="geometry" />
        </mxCell>
        <mxCell id="CyyGL9ud01h04zfXikxN-62" value="" style="shape=partialRectangle;collapsible=0;dropTarget=0;pointerEvents=0;fillColor=none;top=0;left=0;bottom=0;right=0;points=[[0,0.5],[1,0.5]];portConstraint=eastwest;strokeColor=#788AA3;fontColor=#46495D;" parent="CyyGL9ud01h04zfXikxN-58" vertex="1">
          <mxGeometry y="60" width="180" height="30" as="geometry" />
        </mxCell>
        <mxCell id="CyyGL9ud01h04zfXikxN-63" value="" style="shape=partialRectangle;connectable=0;fillColor=none;top=0;left=0;bottom=0;right=0;editable=1;overflow=hidden;strokeColor=#788AA3;fontColor=#46495D;" parent="CyyGL9ud01h04zfXikxN-62" vertex="1">
          <mxGeometry width="30" height="30" as="geometry" />
        </mxCell>
        <mxCell id="CyyGL9ud01h04zfXikxN-64" value="participant_name" style="shape=partialRectangle;connectable=0;fillColor=none;top=0;left=0;bottom=0;right=0;align=left;spacingLeft=6;overflow=hidden;fontStyle=1;strokeColor=#788AA3;fontColor=#46495D;" parent="CyyGL9ud01h04zfXikxN-62" vertex="1">
          <mxGeometry x="30" width="150" height="30" as="geometry" />
        </mxCell>
        <mxCell id="CyyGL9ud01h04zfXikxN-68" value="" style="shape=partialRectangle;collapsible=0;dropTarget=0;pointerEvents=0;fillColor=none;top=0;left=0;bottom=0;right=0;points=[[0,0.5],[1,0.5]];portConstraint=eastwest;strokeColor=#788AA3;fontColor=#46495D;" parent="CyyGL9ud01h04zfXikxN-58" vertex="1">
          <mxGeometry y="90" width="180" height="20" as="geometry" />
        </mxCell>
        <mxCell id="CyyGL9ud01h04zfXikxN-69" value="" style="shape=partialRectangle;connectable=0;fillColor=none;top=0;left=0;bottom=0;right=0;editable=1;overflow=hidden;strokeColor=#788AA3;fontColor=#46495D;" parent="CyyGL9ud01h04zfXikxN-68" vertex="1">
          <mxGeometry width="30" height="20" as="geometry" />
        </mxCell>
        <mxCell id="CyyGL9ud01h04zfXikxN-70" value="" style="shape=partialRectangle;connectable=0;fillColor=none;top=0;left=0;bottom=0;right=0;align=left;spacingLeft=6;overflow=hidden;strokeColor=#788AA3;fontColor=#46495D;" parent="CyyGL9ud01h04zfXikxN-68" vertex="1">
          <mxGeometry x="30" width="150" height="20" as="geometry" />
        </mxCell>
        <mxCell id="CyyGL9ud01h04zfXikxN-71" value="" style="edgeStyle=entityRelationEdgeStyle;fontSize=12;html=1;endArrow=ERoneToMany;strokeColor=#788AA3;fillColor=#B2C9AB;exitX=1;exitY=0.5;exitDx=0;exitDy=0;entryX=0;entryY=0.5;entryDx=0;entryDy=0;" parent="1" source="CyyGL9ud01h04zfXikxN-15" target="CyyGL9ud01h04zfXikxN-59" edge="1">
          <mxGeometry width="100" height="100" relative="1" as="geometry">
            <mxPoint x="756" y="248" as="sourcePoint" />
            <mxPoint x="536" y="258" as="targetPoint" />
          </mxGeometry>
        </mxCell>
        <mxCell id="CyyGL9ud01h04zfXikxN-72" value="match" style="shape=table;startSize=30;container=1;collapsible=1;childLayout=tableLayout;fixedRows=1;rowLines=0;fontStyle=1;align=center;resizeLast=1;fillColor=#B2C9AB;strokeColor=#788AA3;fontColor=#46495D;" parent="1" vertex="1">
          <mxGeometry x="346" y="398" width="180" height="250" as="geometry">
            <mxRectangle x="280" y="200" width="100" height="30" as="alternateBounds" />
          </mxGeometry>
        </mxCell>
        <mxCell id="CyyGL9ud01h04zfXikxN-73" value="" style="shape=partialRectangle;collapsible=0;dropTarget=0;pointerEvents=0;fillColor=none;top=0;left=0;bottom=1;right=0;points=[[0,0.5],[1,0.5]];portConstraint=eastwest;strokeColor=#788AA3;fontColor=#46495D;" parent="CyyGL9ud01h04zfXikxN-72" vertex="1">
          <mxGeometry y="30" width="180" height="30" as="geometry" />
        </mxCell>
        <mxCell id="CyyGL9ud01h04zfXikxN-74" value="PK" style="shape=partialRectangle;connectable=0;fillColor=none;top=0;left=0;bottom=0;right=0;fontStyle=1;overflow=hidden;strokeColor=#788AA3;fontColor=#46495D;" parent="CyyGL9ud01h04zfXikxN-73" vertex="1">
          <mxGeometry width="30" height="30" as="geometry" />
        </mxCell>
        <mxCell id="CyyGL9ud01h04zfXikxN-75" value="match_id" style="shape=partialRectangle;connectable=0;fillColor=none;top=0;left=0;bottom=0;right=0;align=left;spacingLeft=6;fontStyle=5;overflow=hidden;strokeColor=#788AA3;fontColor=#46495D;" parent="CyyGL9ud01h04zfXikxN-73" vertex="1">
          <mxGeometry x="30" width="150" height="30" as="geometry" />
        </mxCell>
        <mxCell id="CyyGL9ud01h04zfXikxN-76" value="" style="shape=partialRectangle;collapsible=0;dropTarget=0;pointerEvents=0;fillColor=none;top=0;left=0;bottom=0;right=0;points=[[0,0.5],[1,0.5]];portConstraint=eastwest;strokeColor=#788AA3;fontColor=#46495D;" parent="CyyGL9ud01h04zfXikxN-72" vertex="1">
          <mxGeometry y="60" width="180" height="30" as="geometry" />
        </mxCell>
        <mxCell id="CyyGL9ud01h04zfXikxN-77" value="" style="shape=partialRectangle;connectable=0;fillColor=none;top=0;left=0;bottom=0;right=0;editable=1;overflow=hidden;strokeColor=#788AA3;fontColor=#46495D;" parent="CyyGL9ud01h04zfXikxN-76" vertex="1">
          <mxGeometry width="30" height="30" as="geometry" />
        </mxCell>
        <mxCell id="CyyGL9ud01h04zfXikxN-78" value="date" style="shape=partialRectangle;connectable=0;fillColor=none;top=0;left=0;bottom=0;right=0;align=left;spacingLeft=6;overflow=hidden;fontStyle=1;strokeColor=#788AA3;fontColor=#46495D;" parent="CyyGL9ud01h04zfXikxN-76" vertex="1">
          <mxGeometry x="30" width="150" height="30" as="geometry" />
        </mxCell>
        <mxCell id="CyyGL9ud01h04zfXikxN-79" value="" style="shape=partialRectangle;collapsible=0;dropTarget=0;pointerEvents=0;fillColor=none;top=0;left=0;bottom=0;right=0;points=[[0,0.5],[1,0.5]];portConstraint=eastwest;strokeColor=#788AA3;fontColor=#46495D;" parent="CyyGL9ud01h04zfXikxN-72" vertex="1">
          <mxGeometry y="90" width="180" height="30" as="geometry" />
        </mxCell>
        <mxCell id="CyyGL9ud01h04zfXikxN-80" value="" style="shape=partialRectangle;connectable=0;fillColor=none;top=0;left=0;bottom=0;right=0;editable=1;overflow=hidden;fontStyle=1;strokeColor=#788AA3;fontColor=#46495D;" parent="CyyGL9ud01h04zfXikxN-79" vertex="1">
          <mxGeometry width="30" height="30" as="geometry" />
        </mxCell>
        <mxCell id="CyyGL9ud01h04zfXikxN-81" value="participant_a_score" style="shape=partialRectangle;connectable=0;fillColor=none;top=0;left=0;bottom=0;right=0;align=left;spacingLeft=6;overflow=hidden;fontStyle=1;strokeColor=#788AA3;fontColor=#46495D;" parent="CyyGL9ud01h04zfXikxN-79" vertex="1">
          <mxGeometry x="30" width="150" height="30" as="geometry" />
        </mxCell>
        <mxCell id="CyyGL9ud01h04zfXikxN-82" value="" style="shape=partialRectangle;collapsible=0;dropTarget=0;pointerEvents=0;fillColor=none;top=0;left=0;bottom=0;right=0;points=[[0,0.5],[1,0.5]];portConstraint=eastwest;strokeColor=#788AA3;fontColor=#46495D;" parent="CyyGL9ud01h04zfXikxN-72" vertex="1">
          <mxGeometry y="120" width="180" height="30" as="geometry" />
        </mxCell>
        <mxCell id="CyyGL9ud01h04zfXikxN-83" value="" style="shape=partialRectangle;connectable=0;fillColor=none;top=0;left=0;bottom=0;right=0;editable=1;overflow=hidden;strokeColor=#788AA3;fontColor=#46495D;" parent="CyyGL9ud01h04zfXikxN-82" vertex="1">
          <mxGeometry width="30" height="30" as="geometry" />
        </mxCell>
        <mxCell id="CyyGL9ud01h04zfXikxN-84" value="participant_b_score" style="shape=partialRectangle;connectable=0;fillColor=none;top=0;left=0;bottom=0;right=0;align=left;spacingLeft=6;overflow=hidden;strokeColor=#788AA3;fontColor=#46495D;fontStyle=1" parent="CyyGL9ud01h04zfXikxN-82" vertex="1">
          <mxGeometry x="30" width="150" height="30" as="geometry" />
        </mxCell>
        <mxCell id="CyyGL9ud01h04zfXikxN-117" value="" style="shape=partialRectangle;collapsible=0;dropTarget=0;pointerEvents=0;fillColor=none;top=0;left=0;bottom=0;right=0;points=[[0,0.5],[1,0.5]];portConstraint=eastwest;strokeColor=#788AA3;fontColor=#46495D;" parent="CyyGL9ud01h04zfXikxN-72" vertex="1">
          <mxGeometry y="150" width="180" height="30" as="geometry" />
        </mxCell>
        <mxCell id="CyyGL9ud01h04zfXikxN-118" value="" style="shape=partialRectangle;connectable=0;fillColor=none;top=0;left=0;bottom=0;right=0;editable=1;overflow=hidden;strokeColor=#788AA3;fontColor=#46495D;" parent="CyyGL9ud01h04zfXikxN-117" vertex="1">
          <mxGeometry width="30" height="30" as="geometry" />
        </mxCell>
        <mxCell id="CyyGL9ud01h04zfXikxN-119" value="match_number" style="shape=partialRectangle;connectable=0;fillColor=none;top=0;left=0;bottom=0;right=0;align=left;spacingLeft=6;overflow=hidden;strokeColor=#788AA3;fontColor=#46495D;fontStyle=1" parent="CyyGL9ud01h04zfXikxN-117" vertex="1">
          <mxGeometry x="30" width="150" height="30" as="geometry" />
        </mxCell>
        <mxCell id="CyyGL9ud01h04zfXikxN-85" value="" style="shape=partialRectangle;collapsible=0;dropTarget=0;pointerEvents=0;fillColor=none;top=0;left=0;bottom=0;right=0;points=[[0,0.5],[1,0.5]];portConstraint=eastwest;strokeColor=#788AA3;fontColor=#46495D;" parent="CyyGL9ud01h04zfXikxN-72" vertex="1">
          <mxGeometry y="180" width="180" height="30" as="geometry" />
        </mxCell>
        <mxCell id="CyyGL9ud01h04zfXikxN-86" value="FK" style="shape=partialRectangle;connectable=0;fillColor=none;top=0;left=0;bottom=0;right=0;editable=1;overflow=hidden;strokeColor=#788AA3;fontColor=#46495D;fontStyle=1" parent="CyyGL9ud01h04zfXikxN-85" vertex="1">
          <mxGeometry width="30" height="30" as="geometry" />
        </mxCell>
        <mxCell id="CyyGL9ud01h04zfXikxN-87" value="match_status_id" style="shape=partialRectangle;connectable=0;fillColor=none;top=0;left=0;bottom=0;right=0;align=left;spacingLeft=6;overflow=hidden;strokeColor=#788AA3;fontColor=#46495D;fontStyle=1" parent="CyyGL9ud01h04zfXikxN-85" vertex="1">
          <mxGeometry x="30" width="150" height="30" as="geometry" />
        </mxCell>
        <mxCell id="CyyGL9ud01h04zfXikxN-88" value="" style="shape=partialRectangle;collapsible=0;dropTarget=0;pointerEvents=0;fillColor=none;top=0;left=0;bottom=0;right=0;points=[[0,0.5],[1,0.5]];portConstraint=eastwest;strokeColor=#788AA3;fontColor=#46495D;fontStyle=0" parent="CyyGL9ud01h04zfXikxN-72" vertex="1">
          <mxGeometry y="210" width="180" height="30" as="geometry" />
        </mxCell>
        <mxCell id="CyyGL9ud01h04zfXikxN-89" value="FK" style="shape=partialRectangle;connectable=0;fillColor=none;top=0;left=0;bottom=0;right=0;editable=1;overflow=hidden;strokeColor=#788AA3;fontColor=#46495D;fontStyle=1" parent="CyyGL9ud01h04zfXikxN-88" vertex="1">
          <mxGeometry width="30" height="30" as="geometry" />
        </mxCell>
        <mxCell id="CyyGL9ud01h04zfXikxN-90" value="tournament_id" style="shape=partialRectangle;connectable=0;fillColor=none;top=0;left=0;bottom=0;right=0;align=left;spacingLeft=6;overflow=hidden;strokeColor=#788AA3;fontColor=#46495D;fontStyle=1" parent="CyyGL9ud01h04zfXikxN-88" vertex="1">
          <mxGeometry x="30" width="150" height="30" as="geometry" />
        </mxCell>
        <mxCell id="CyyGL9ud01h04zfXikxN-91" value="match_elimination" style="shape=table;startSize=30;container=1;collapsible=1;childLayout=tableLayout;fixedRows=1;rowLines=0;fontStyle=1;align=center;resizeLast=1;fillColor=#B2C9AB;strokeColor=#788AA3;fontColor=#46495D;" parent="1" vertex="1">
          <mxGeometry x="646" y="398" width="180" height="140" as="geometry">
            <mxRectangle x="280" y="200" width="100" height="30" as="alternateBounds" />
          </mxGeometry>
        </mxCell>
        <mxCell id="CyyGL9ud01h04zfXikxN-92" value="" style="shape=partialRectangle;collapsible=0;dropTarget=0;pointerEvents=0;fillColor=none;top=0;left=0;bottom=1;right=0;points=[[0,0.5],[1,0.5]];portConstraint=eastwest;strokeColor=#788AA3;fontColor=#46495D;" parent="CyyGL9ud01h04zfXikxN-91" vertex="1">
          <mxGeometry y="30" width="180" height="30" as="geometry" />
        </mxCell>
        <mxCell id="CyyGL9ud01h04zfXikxN-93" value="PK" style="shape=partialRectangle;connectable=0;fillColor=none;top=0;left=0;bottom=0;right=0;fontStyle=1;overflow=hidden;strokeColor=#788AA3;fontColor=#46495D;" parent="CyyGL9ud01h04zfXikxN-92" vertex="1">
          <mxGeometry width="30" height="30" as="geometry" />
        </mxCell>
        <mxCell id="CyyGL9ud01h04zfXikxN-94" value="match_id" style="shape=partialRectangle;connectable=0;fillColor=none;top=0;left=0;bottom=0;right=0;align=left;spacingLeft=6;fontStyle=5;overflow=hidden;strokeColor=#788AA3;fontColor=#46495D;" parent="CyyGL9ud01h04zfXikxN-92" vertex="1">
          <mxGeometry x="30" width="150" height="30" as="geometry" />
        </mxCell>
        <mxCell id="CyyGL9ud01h04zfXikxN-95" value="" style="shape=partialRectangle;collapsible=0;dropTarget=0;pointerEvents=0;fillColor=none;top=0;left=0;bottom=0;right=0;points=[[0,0.5],[1,0.5]];portConstraint=eastwest;strokeColor=#788AA3;fontColor=#46495D;" parent="CyyGL9ud01h04zfXikxN-91" vertex="1">
          <mxGeometry y="60" width="180" height="30" as="geometry" />
        </mxCell>
        <mxCell id="CyyGL9ud01h04zfXikxN-96" value="FK" style="shape=partialRectangle;connectable=0;fillColor=none;top=0;left=0;bottom=0;right=0;editable=1;overflow=hidden;strokeColor=#788AA3;fontColor=#46495D;fontStyle=1" parent="CyyGL9ud01h04zfXikxN-95" vertex="1">
          <mxGeometry width="30" height="30" as="geometry" />
        </mxCell>
        <mxCell id="CyyGL9ud01h04zfXikxN-97" value="a_next_match" style="shape=partialRectangle;connectable=0;fillColor=none;top=0;left=0;bottom=0;right=0;align=left;spacingLeft=6;overflow=hidden;fontStyle=1;strokeColor=#788AA3;fontColor=#46495D;" parent="CyyGL9ud01h04zfXikxN-95" vertex="1">
          <mxGeometry x="30" width="150" height="30" as="geometry" />
        </mxCell>
        <mxCell id="CyyGL9ud01h04zfXikxN-98" value="" style="shape=partialRectangle;collapsible=0;dropTarget=0;pointerEvents=0;fillColor=none;top=0;left=0;bottom=0;right=0;points=[[0,0.5],[1,0.5]];portConstraint=eastwest;strokeColor=#788AA3;fontColor=#46495D;" parent="CyyGL9ud01h04zfXikxN-91" vertex="1">
          <mxGeometry y="90" width="180" height="30" as="geometry" />
        </mxCell>
        <mxCell id="CyyGL9ud01h04zfXikxN-99" value="FK" style="shape=partialRectangle;connectable=0;fillColor=none;top=0;left=0;bottom=0;right=0;editable=1;overflow=hidden;fontStyle=1;strokeColor=#788AA3;fontColor=#46495D;" parent="CyyGL9ud01h04zfXikxN-98" vertex="1">
          <mxGeometry width="30" height="30" as="geometry" />
        </mxCell>
        <mxCell id="CyyGL9ud01h04zfXikxN-100" value="b_next_match" style="shape=partialRectangle;connectable=0;fillColor=none;top=0;left=0;bottom=0;right=0;align=left;spacingLeft=6;overflow=hidden;fontStyle=1;strokeColor=#788AA3;fontColor=#46495D;" parent="CyyGL9ud01h04zfXikxN-98" vertex="1">
          <mxGeometry x="30" width="150" height="30" as="geometry" />
        </mxCell>
        <mxCell id="CyyGL9ud01h04zfXikxN-101" value="" style="shape=partialRectangle;collapsible=0;dropTarget=0;pointerEvents=0;fillColor=none;top=0;left=0;bottom=0;right=0;points=[[0,0.5],[1,0.5]];portConstraint=eastwest;strokeColor=#788AA3;fontColor=#46495D;" parent="CyyGL9ud01h04zfXikxN-91" vertex="1">
          <mxGeometry y="120" width="180" height="20" as="geometry" />
        </mxCell>
        <mxCell id="CyyGL9ud01h04zfXikxN-102" value="" style="shape=partialRectangle;connectable=0;fillColor=none;top=0;left=0;bottom=0;right=0;editable=1;overflow=hidden;strokeColor=#788AA3;fontColor=#46495D;" parent="CyyGL9ud01h04zfXikxN-101" vertex="1">
          <mxGeometry width="30" height="20" as="geometry" />
        </mxCell>
        <mxCell id="CyyGL9ud01h04zfXikxN-103" value="" style="shape=partialRectangle;connectable=0;fillColor=none;top=0;left=0;bottom=0;right=0;align=left;spacingLeft=6;overflow=hidden;strokeColor=#788AA3;fontColor=#46495D;" parent="CyyGL9ud01h04zfXikxN-101" vertex="1">
          <mxGeometry x="30" width="150" height="20" as="geometry" />
        </mxCell>
        <mxCell id="CyyGL9ud01h04zfXikxN-120" value="" style="edgeStyle=entityRelationEdgeStyle;fontSize=12;html=1;endArrow=ERmandOne;startArrow=ERmandOne;strokeColor=#788AA3;fillColor=#B2C9AB;exitX=1;exitY=0.5;exitDx=0;exitDy=0;entryX=0;entryY=0.5;entryDx=0;entryDy=0;" parent="1" source="CyyGL9ud01h04zfXikxN-73" target="CyyGL9ud01h04zfXikxN-92" edge="1">
          <mxGeometry width="100" height="100" relative="1" as="geometry">
            <mxPoint x="536" y="558" as="sourcePoint" />
            <mxPoint x="636" y="458" as="targetPoint" />
          </mxGeometry>
        </mxCell>
        <mxCell id="CyyGL9ud01h04zfXikxN-125" value="" style="edgeStyle=entityRelationEdgeStyle;fontSize=12;html=1;endArrow=ERoneToMany;strokeColor=#788AA3;fillColor=#B2C9AB;exitX=1;exitY=0.5;exitDx=0;exitDy=0;entryX=1;entryY=0.5;entryDx=0;entryDy=0;" parent="1" source="CyyGL9ud01h04zfXikxN-15" target="CyyGL9ud01h04zfXikxN-88" edge="1">
          <mxGeometry width="100" height="100" relative="1" as="geometry">
            <mxPoint x="586" y="258" as="sourcePoint" />
            <mxPoint x="536" y="258" as="targetPoint" />
          </mxGeometry>
        </mxCell>
        <mxCell id="CyyGL9ud01h04zfXikxN-126" value="Tournament Schema&lt;br style=&quot;font-size: 20px;&quot;&gt;" style="text;html=1;align=center;verticalAlign=middle;resizable=0;points=[];autosize=1;fontColor=#46495D;fontSize=20;fontStyle=1" parent="1" vertex="1">
          <mxGeometry x="377" y="137" width="206" height="28" as="geometry" />
        </mxCell>
        <mxCell id="CyyGL9ud01h04zfXikxN-129" value="" style="edgeStyle=entityRelationEdgeStyle;fontSize=12;html=1;endArrow=ERmandOne;startArrow=ERmandOne;strokeColor=#788AA3;fillColor=#B2C9AB;entryX=0;entryY=0.5;entryDx=0;entryDy=0;exitX=1;exitY=0.5;exitDx=0;exitDy=0;" parent="1" source="CyyGL9ud01h04zfXikxN-28" target="CyyGL9ud01h04zfXikxN-21" edge="1">
          <mxGeometry width="100" height="100" relative="1" as="geometry">
            <mxPoint x="378" y="509" as="sourcePoint" />
            <mxPoint x="478" y="409" as="targetPoint" />
          </mxGeometry>
        </mxCell>
        <mxCell id="CyyGL9ud01h04zfXikxN-130" value="" style="edgeStyle=entityRelationEdgeStyle;fontSize=12;html=1;endArrow=ERmandOne;startArrow=ERmandOne;strokeColor=#788AA3;fillColor=#B2C9AB;entryX=0;entryY=0.5;entryDx=0;entryDy=0;exitX=1;exitY=0.5;exitDx=0;exitDy=0;" parent="1" source="CyyGL9ud01h04zfXikxN-73" target="CyyGL9ud01h04zfXikxN-98" edge="1">
          <mxGeometry width="100" height="100" relative="1" as="geometry">
            <mxPoint x="594" y="691" as="sourcePoint" />
            <mxPoint x="694" y="591" as="targetPoint" />
          </mxGeometry>
        </mxCell>
        <mxCell id="CyyGL9ud01h04zfXikxN-131" value="" style="edgeStyle=entityRelationEdgeStyle;fontSize=12;html=1;endArrow=ERmandOne;startArrow=ERmandOne;strokeColor=#788AA3;fillColor=#B2C9AB;exitX=0;exitY=0.5;exitDx=0;exitDy=0;entryX=1;entryY=0.5;entryDx=0;entryDy=0;" parent="1" source="CyyGL9ud01h04zfXikxN-95" target="CyyGL9ud01h04zfXikxN-73" edge="1">
          <mxGeometry width="100" height="100" relative="1" as="geometry">
            <mxPoint x="378" y="509" as="sourcePoint" />
            <mxPoint x="478" y="409" as="targetPoint" />
          </mxGeometry>
        </mxCell>
        <mxCell id="w8OiVgCUnuPKZziJyRzM-1" value="match_status" style="shape=table;startSize=30;container=1;collapsible=1;childLayout=tableLayout;fixedRows=1;rowLines=0;fontStyle=1;align=center;resizeLast=1;fillColor=#B2C9AB;strokeColor=#788AA3;fontColor=#46495D;" vertex="1" parent="1">
          <mxGeometry x="100" y="398" width="180" height="90" as="geometry" />
        </mxCell>
        <mxCell id="w8OiVgCUnuPKZziJyRzM-2" value="" style="shape=partialRectangle;collapsible=0;dropTarget=0;pointerEvents=0;fillColor=none;top=0;left=0;bottom=1;right=0;points=[[0,0.5],[1,0.5]];portConstraint=eastwest;strokeColor=#788AA3;fontColor=#46495D;" vertex="1" parent="w8OiVgCUnuPKZziJyRzM-1">
          <mxGeometry y="30" width="180" height="30" as="geometry" />
        </mxCell>
        <mxCell id="w8OiVgCUnuPKZziJyRzM-3" value="PK" style="shape=partialRectangle;connectable=0;fillColor=none;top=0;left=0;bottom=0;right=0;fontStyle=1;overflow=hidden;strokeColor=#788AA3;fontColor=#46495D;" vertex="1" parent="w8OiVgCUnuPKZziJyRzM-2">
          <mxGeometry width="30" height="30" as="geometry" />
        </mxCell>
        <mxCell id="w8OiVgCUnuPKZziJyRzM-4" value="match_status_id" style="shape=partialRectangle;connectable=0;fillColor=none;top=0;left=0;bottom=0;right=0;align=left;spacingLeft=6;fontStyle=5;overflow=hidden;strokeColor=#788AA3;fontColor=#46495D;" vertex="1" parent="w8OiVgCUnuPKZziJyRzM-2">
          <mxGeometry x="30" width="150" height="30" as="geometry" />
        </mxCell>
        <mxCell id="w8OiVgCUnuPKZziJyRzM-5" value="" style="shape=partialRectangle;collapsible=0;dropTarget=0;pointerEvents=0;fillColor=none;top=0;left=0;bottom=0;right=0;points=[[0,0.5],[1,0.5]];portConstraint=eastwest;strokeColor=#788AA3;fontColor=#46495D;" vertex="1" parent="w8OiVgCUnuPKZziJyRzM-1">
          <mxGeometry y="60" width="180" height="30" as="geometry" />
        </mxCell>
        <mxCell id="w8OiVgCUnuPKZziJyRzM-6" value="" style="shape=partialRectangle;connectable=0;fillColor=none;top=0;left=0;bottom=0;right=0;editable=1;overflow=hidden;strokeColor=#788AA3;fontColor=#46495D;" vertex="1" parent="w8OiVgCUnuPKZziJyRzM-5">
          <mxGeometry width="30" height="30" as="geometry" />
        </mxCell>
        <mxCell id="w8OiVgCUnuPKZziJyRzM-7" value="match_status_name" style="shape=partialRectangle;connectable=0;fillColor=none;top=0;left=0;bottom=0;right=0;align=left;spacingLeft=6;overflow=hidden;strokeColor=#788AA3;fontColor=#46495D;" vertex="1" parent="w8OiVgCUnuPKZziJyRzM-5">
          <mxGeometry x="30" width="150" height="30" as="geometry" />
        </mxCell>
        <mxCell id="w8OiVgCUnuPKZziJyRzM-8" value="" style="edgeStyle=entityRelationEdgeStyle;fontSize=12;html=1;endArrow=ERmandOne;startArrow=ERmandOne;strokeColor=#788AA3;fillColor=#B2C9AB;exitX=0;exitY=0.5;exitDx=0;exitDy=0;entryX=1;entryY=0.5;entryDx=0;entryDy=0;" edge="1" parent="1" source="CyyGL9ud01h04zfXikxN-88" target="w8OiVgCUnuPKZziJyRzM-2">
          <mxGeometry width="100" height="100" relative="1" as="geometry">
            <mxPoint x="415" y="615" as="sourcePoint" />
            <mxPoint x="515" y="515" as="targetPoint" />
          </mxGeometry>
        </mxCell>
      </root>
    </mxGraphModel>
  </diagram>
</mxfile>
